<svg width="29" height="29" viewBox="0 0 29 29" fill="none" xmlns="http://www.w3.org/2000/svg">
<g id="Account">
<path id="Vector" d="M18.9829 15.3579C20.1676 14.4259 21.0322 13.1478 21.4567 11.7014C21.8811 10.2551 21.8441 8.71241 21.351 7.28803C20.8578 5.86365 19.933 4.6284 18.7051 3.75413C17.4772 2.87985 16.0073 2.41003 14.5 2.41003C12.9927 2.41003 11.5228 2.87985 10.2949 3.75413C9.06702 4.6284 8.14216 5.86365 7.649 7.28803C7.15584 8.71241 7.11891 10.2551 7.54333 11.7014C7.96776 13.1478 8.83244 14.4259 10.0171 15.3579C7.98717 16.1712 6.21601 17.5201 4.89241 19.2607C3.56881 21.0014 2.74238 23.0687 2.50125 25.2421C2.48379 25.4008 2.49776 25.5613 2.54236 25.7146C2.58696 25.8679 2.66131 26.0109 2.76117 26.1354C2.96285 26.387 3.25619 26.5481 3.57666 26.5833C3.89713 26.6186 4.21848 26.5251 4.47001 26.3234C4.72155 26.1217 4.88266 25.8284 4.91791 25.5079C5.18324 23.1459 6.30953 20.9644 8.08159 19.3802C9.85365 17.7961 12.1472 16.9203 14.5242 16.9203C16.9011 16.9203 19.1947 17.7961 20.9667 19.3802C22.7388 20.9644 23.8651 23.1459 24.1304 25.5079C24.1633 25.8048 24.3049 26.0791 24.5281 26.2777C24.7512 26.4762 25.04 26.5852 25.3387 26.5833H25.4717C25.7884 26.5469 26.0779 26.3867 26.2771 26.1378C26.4763 25.8888 26.569 25.5712 26.535 25.2542C26.2927 23.0746 25.4618 21.002 24.1314 19.2587C22.801 17.5153 21.0213 16.1669 18.9829 15.3579ZM14.5 14.5C13.5441 14.5 12.6096 14.2165 11.8147 13.6854C11.0199 13.1544 10.4004 12.3995 10.0346 11.5163C9.66875 10.6331 9.57304 9.66131 9.75953 8.72374C9.94603 7.78616 10.4064 6.92495 11.0823 6.24899C11.7583 5.57304 12.6195 5.11271 13.5571 4.92621C14.4946 4.73972 15.4665 4.83543 16.3496 5.20126C17.2328 5.56708 17.9877 6.18658 18.5188 6.98142C19.0499 7.77626 19.3333 8.71073 19.3333 9.66668C19.3333 10.9486 18.8241 12.1779 17.9177 13.0844C17.0113 13.9908 15.7819 14.5 14.5 14.5Z" fill="white" fill-opacity="0.75"/>
</g>
</svg>
