<svg width="24" height="24" viewBox="0 0 24 24" fill="none" xmlns="http://www.w3.org/2000/svg">
<g id="Back">
<path id="Vector" d="M20.9966 13.6718C20.9955 15.3048 20.3466 16.8708 19.1921 18.0259C18.0377 19.181 16.4722 19.8309 14.8391 19.833H3.75336C3.55444 19.833 3.36368 19.754 3.22303 19.6133C3.08237 19.4727 3.00336 19.2819 3.00336 19.083C3.00336 18.8841 3.08237 18.6933 3.22303 18.5527C3.36368 18.412 3.55444 18.333 3.75336 18.333H14.8391C16.0676 18.322 17.242 17.8262 18.1067 16.9537C18.9715 16.0811 19.4567 14.9023 19.4567 13.6738C19.4567 12.4453 18.9715 11.2665 18.1067 10.3939C17.242 9.52138 16.0676 9.02565 14.8391 9.01463H5.84661L8.30098 11.0325C8.37755 11.0949 8.44104 11.1718 8.48781 11.2588C8.53458 11.3458 8.56371 11.4411 8.57353 11.5394C8.58334 11.6377 8.57365 11.7369 8.54501 11.8314C8.51637 11.926 8.46934 12.0139 8.40662 12.0902C8.34391 12.1665 8.26674 12.2296 8.17955 12.276C8.09236 12.3224 7.99686 12.3512 7.89855 12.3605C7.80023 12.3699 7.70103 12.3598 7.60663 12.3308C7.51223 12.3017 7.42451 12.2543 7.34848 12.1913L3.27711 8.84363C3.26811 8.83613 3.26136 8.82713 3.25273 8.81925C3.23321 8.80154 3.21468 8.78276 3.19723 8.763L3.19123 8.75738C3.18598 8.75138 3.17923 8.74688 3.17398 8.74088V8.73863C3.16611 8.72925 3.16048 8.71838 3.15336 8.70863C3.13861 8.68903 3.12496 8.66862 3.11248 8.6475C3.10948 8.64263 3.10536 8.63813 3.10273 8.63288C3.10011 8.62763 3.09336 8.6205 3.08998 8.61375C3.08661 8.607 3.08211 8.5935 3.07761 8.58375C3.06748 8.562 3.05886 8.53988 3.05061 8.517L3.04798 8.51025C3.04048 8.48888 3.03373 8.46713 3.02811 8.44538C3.02248 8.42363 3.01873 8.40075 3.01536 8.37788C3.01311 8.364 3.00861 8.35088 3.00748 8.337C3.00636 8.32313 3.00748 8.31038 3.00748 8.29725C3.00748 8.28413 3.00411 8.27588 3.00411 8.26463C3.00411 8.25338 3.00711 8.24288 3.00748 8.23163C3.00786 8.22038 3.00748 8.20538 3.00748 8.19225C3.00748 8.17913 3.01311 8.16488 3.01536 8.151C3.01873 8.12813 3.02286 8.10563 3.02811 8.0835C3.03336 8.06138 3.04048 8.04 3.04798 8.01863L3.05061 8.01188C3.05886 7.989 3.06748 7.96688 3.07761 7.94513C3.08211 7.93538 3.08473 7.92488 3.08998 7.91513C3.09523 7.90538 3.09898 7.90275 3.10273 7.896C3.10648 7.88925 3.10948 7.88625 3.11248 7.88138C3.12472 7.86028 3.13811 7.83987 3.15261 7.82025C3.15973 7.8105 3.16536 7.79963 3.17323 7.79025V7.78838C3.18073 7.779 3.19011 7.77263 3.19798 7.76363C3.21523 7.74488 3.23286 7.72613 3.25198 7.70963C3.26061 7.70175 3.26736 7.69275 3.27636 7.68525L3.28011 7.68188L7.34998 4.33763C7.42601 4.27458 7.51373 4.22717 7.60813 4.19812C7.70253 4.16907 7.80173 4.15895 7.90005 4.16834C7.99836 4.17773 8.09386 4.20644 8.18105 4.25284C8.26824 4.29923 8.34541 4.36239 8.40812 4.43869C8.47084 4.51498 8.51787 4.60291 8.54651 4.69743C8.57515 4.79195 8.58484 4.8912 8.57503 4.98948C8.56521 5.08775 8.53608 5.18312 8.48931 5.27011C8.44254 5.3571 8.37905 5.43399 8.30248 5.49638L5.84811 7.51463H14.8406C16.4728 7.51681 18.0375 8.16624 19.1915 9.32049C20.3456 10.4747 20.9947 12.0396 20.9966 13.6718Z" fill="white" fill-opacity="0.75"/>
</g>
</svg>
