<svg width="20" height="14" viewBox="0 0 20 14" fill="none" xmlns="http://www.w3.org/2000/svg">
<g id="imdb">
<g clip-path="url(#clip0_15_1655)">
<path id="Vector" d="M19.2026 0H0.845347C0.842375 0 0.839966 0.00183633 0.839966 0.00410156V13.9959C0.839966 13.9982 0.842375 14 0.845347 14H19.2026C19.2055 14 19.208 13.9982 19.208 13.9959V0.00410156C19.208 0.00183633 19.2055 0 19.2026 0Z" fill="#F5C518"/>
<path id="Vector_2" d="M4.57095 8.96875V5.03125H3.13596V8.96875H4.57095ZM7.62033 5.03125L7.29745 6.86328L7.11808 5.87891L6.9387 5.03125H5.14495V8.96875H6.3647V6.37109L6.86695 8.96875H7.76383L8.2302 6.31641V8.96875H9.44995V5.03125H7.62033ZM10.024 8.96875V5.03125H12.2482C12.7863 5.03125 13.1809 5.33203 13.1809 5.71484V8.28516C13.1809 8.66797 12.7863 8.96875 12.2482 8.96875H10.024ZM11.7101 5.74219L11.3872 5.71484V8.28516C11.5666 8.28516 11.7101 8.25781 11.7459 8.20312C11.8177 8.14844 11.8177 7.98438 11.8177 7.71094V6.17969V5.85156L11.7101 5.74219ZM15.8716 6.01562H15.9792C16.4814 6.01562 16.9119 6.31641 16.9119 6.69922V8.28516C16.9119 8.66797 16.4814 8.96875 15.9792 8.96875H15.8716C15.5846 8.96875 15.2976 8.85938 15.1182 8.66797L15.0464 8.91406H13.7549V5.03125H15.1182V6.28906C15.2976 6.125 15.5846 6.01562 15.8716 6.01562ZM15.5846 7.92969V7L15.5487 6.69922C15.5128 6.64453 15.4052 6.61719 15.3334 6.61719C15.2617 6.61719 15.1541 6.64453 15.1182 6.69922V8.25781C15.1541 8.3125 15.2617 8.33984 15.3334 8.33984C15.4052 8.33984 15.5487 8.3125 15.5487 8.25781L15.5846 7.92969Z" fill="black"/>
</g>
</g>
<defs>
<clipPath id="clip0_15_1655">
<rect x="0.839966" width="18.368" height="14" rx="5" fill="white"/>
</clipPath>
</defs>
</svg>
