<svg width="29" height="29" viewBox="0 0 29 29" fill="none" xmlns="http://www.w3.org/2000/svg">
<g id="ticket">
<path id="Vector" d="M10.875 12.0834C10.5545 12.0834 10.2472 12.2107 10.0206 12.4373C9.79398 12.6639 9.66667 12.9712 9.66667 13.2917V15.7084C9.66667 16.0288 9.79398 16.3362 10.0206 16.5628C10.2472 16.7894 10.5545 16.9167 10.875 16.9167C11.1955 16.9167 11.5028 16.7894 11.7294 16.5628C11.956 16.3362 12.0833 16.0288 12.0833 15.7084V13.2917C12.0833 12.9712 11.956 12.6639 11.7294 12.4373C11.5028 12.2107 11.1955 12.0834 10.875 12.0834ZM25.375 13.2917C25.6955 13.2917 26.0028 13.1644 26.2294 12.9378C26.456 12.7112 26.5833 12.4038 26.5833 12.0834V7.25002C26.5833 6.92955 26.456 6.62221 26.2294 6.3956C26.0028 6.16899 25.6955 6.04169 25.375 6.04169H3.62501C3.30454 6.04169 2.99719 6.16899 2.77058 6.3956C2.54398 6.62221 2.41667 6.92955 2.41667 7.25002V12.0834C2.41667 12.4038 2.54398 12.7112 2.77058 12.9378C2.99719 13.1644 3.30454 13.2917 3.62501 13.2917C3.94548 13.2917 4.25282 13.419 4.47943 13.6456C4.70603 13.8722 4.83334 14.1796 4.83334 14.5C4.83334 14.8205 4.70603 15.1278 4.47943 15.3544C4.25282 15.581 3.94548 15.7084 3.62501 15.7084C3.30454 15.7084 2.99719 15.8357 2.77058 16.0623C2.54398 16.2889 2.41667 16.5962 2.41667 16.9167V21.75C2.41667 22.0705 2.54398 22.3778 2.77058 22.6044C2.99719 22.831 3.30454 22.9584 3.62501 22.9584H25.375C25.6955 22.9584 26.0028 22.831 26.2294 22.6044C26.456 22.3778 26.5833 22.0705 26.5833 21.75V16.9167C26.5833 16.5962 26.456 16.2889 26.2294 16.0623C26.0028 15.8357 25.6955 15.7084 25.375 15.7084C25.0545 15.7084 24.7472 15.581 24.5206 15.3544C24.294 15.1278 24.1667 14.8205 24.1667 14.5C24.1667 14.1796 24.294 13.8722 24.5206 13.6456C24.7472 13.419 25.0545 13.2917 25.375 13.2917ZM24.1667 11.0925C23.4669 11.3465 22.8622 11.8098 22.4349 12.4195C22.0077 13.0291 21.7784 13.7555 21.7784 14.5C21.7784 15.2445 22.0077 15.9709 22.4349 16.5806C22.8622 17.1902 23.4669 17.6535 24.1667 17.9075V20.5417H12.0833C12.0833 20.2212 11.956 19.9139 11.7294 19.6873C11.5028 19.4607 11.1955 19.3334 10.875 19.3334C10.5545 19.3334 10.2472 19.4607 10.0206 19.6873C9.79398 19.9139 9.66667 20.2212 9.66667 20.5417H4.83334V17.9075C5.53315 17.6535 6.13778 17.1902 6.56507 16.5806C6.99236 15.9709 7.22158 15.2445 7.22158 14.5C7.22158 13.7555 6.99236 13.0291 6.56507 12.4195C6.13778 11.8098 5.53315 11.3465 4.83334 11.0925V8.45835H9.66667C9.66667 8.77882 9.79398 9.08617 10.0206 9.31277C10.2472 9.53938 10.5545 9.66669 10.875 9.66669C11.1955 9.66669 11.5028 9.53938 11.7294 9.31277C11.956 9.08617 12.0833 8.77882 12.0833 8.45835H24.1667V11.0925Z" fill="white" fill-opacity="0.75"/>
</g>
</svg>
